<?xml version="1.0" standalone="no"?>
<!DOCTYPE svg PUBLIC "-//W3C//DTD SVG 20010904//EN"
 "http://www.w3.org/TR/2001/REC-SVG-20010904/DTD/svg10.dtd">
<svg version="1.0" xmlns="http://www.w3.org/2000/svg"
 width="201.000000pt" height="232.000000pt" viewBox="0 0 201.000000 232.000000"
 preserveAspectRatio="xMidYMid meet">
<metadata>
Created by potrace 1.10, written by Peter Selinger 2001-2011
</metadata>
<g transform="translate(0.000000,232.000000) scale(0.100000,-0.100000)"
fill="#000000" stroke="none">
<path d="M0 2296 c0 -40 31 -47 200 -47 116 -1 126 1 142 21 22 27 23 50 2 50
-8 0 -12 -4 -9 -10 4 -6 -5 -10 -19 -10 -14 0 -26 -5 -26 -11 0 -6 9 -8 20 -4
11 4 20 2 20 -4 0 -6 -11 -11 -24 -11 -24 0 -41 23 -30 41 3 5 0 9 -7 9 -7 0
-9 -10 -7 -25 3 -14 1 -25 -3 -25 -5 0 -9 11 -9 25 0 14 -4 25 -10 25 -5 0
-10 -11 -10 -25 0 -14 -4 -25 -10 -25 -5 0 -10 11 -10 25 0 34 -18 32 -23 -2
l-4 -28 -2 28 c-1 34 -21 36 -21 2 0 -20 -5 -25 -25 -25 -33 0 -35 37 -2 43
19 4 18 4 -5 6 -24 1 -28 -3 -28 -24 0 -14 -5 -25 -10 -25 -6 0 -16 11 -22 25
-15 33 -26 32 -31 -2 l-4 -28 -2 28 c-1 34 -31 38 -31 3z"/>
<path d="M1938 2258 l-3 -63 -970 -5 -970 -5 983 -3 982 -2 0 70 c0 87 -18 93
-22 8z"/>
<path d="M26 2163 l31 -4 -28 -29 c-36 -36 -40 -99 -9 -130 28 -28 112 -28
141 1 16 16 24 18 34 9 7 -6 19 -10 27 -9 7 2 39 -5 71 -15 49 -16 62 -17 85
-6 15 7 68 14 118 15 50 1 97 6 104 10 7 4 19 23 27 43 24 58 3 68 -157 76
-30 1 -59 4 -65 6 -5 2 -28 -1 -50 -6 -22 -6 -60 -10 -85 -9 -25 1 -57 -5 -72
-12 -24 -12 -28 -11 -28 1 0 8 -12 24 -26 35 l-27 21 905 0 c731 0 908 -3 916
-13 6 -7 13 -51 15 -97 l3 -85 2 103 2 102 -982 -2 c-541 0 -969 -3 -952 -5z
m119 -103 l0 -55 -55 0 -55 0 -3 44 c-5 67 0 72 60 69 l53 -3 0 -55z m354 22
c-12 -5 -12 -52 0 -52 5 0 11 14 15 31 5 24 10 30 28 27 30 -4 37 -38 9 -38
-12 0 -21 -5 -21 -11 0 -6 9 -8 21 -4 14 5 19 3 15 -3 -3 -6 -24 -10 -45 -10
-37 0 -39 2 -43 33 -5 45 0 58 17 42 7 -7 9 -13 4 -15z m-267 -4 c-7 -7 -12
-22 -12 -35 0 -13 -4 -23 -8 -23 -4 0 -6 16 -4 35 3 24 9 35 20 35 12 0 13 -3
4 -12z m72 0 c5 -10 7 -10 12 0 3 6 18 12 33 12 26 0 27 -1 21 -47 -4 -40 -9
-49 -27 -51 -13 -2 -23 2 -23 8 0 7 7 10 15 7 8 -4 17 -2 20 3 4 6 -3 10 -13
10 -11 0 -22 7 -26 15 -3 8 -17 15 -31 15 -16 0 -24 -4 -20 -11 4 -6 13 -8 21
-5 8 3 14 1 14 -5 0 -6 -10 -9 -22 -7 -38 5 -37 68 1 68 11 0 22 -6 25 -12z
m156 2 c0 -5 -7 -7 -15 -4 -8 4 -15 1 -15 -5 0 -6 7 -11 15 -11 8 0 15 -9 15
-20 0 -22 -34 -28 -46 -9 -4 8 0 9 15 4 12 -4 21 -2 21 4 0 6 -6 11 -14 11
-18 0 -29 16 -21 30 8 13 45 13 45 0z m153 3 c-7 -2 -13 -18 -13 -34 0 -16 -4
-29 -10 -29 -5 0 -10 16 -10 35 0 30 3 35 23 34 12 0 16 -3 10 -6z"/>
<path d="M50 2060 c0 -40 0 -40 40 -40 40 0 40 0 40 40 0 40 0 40 -40 40 -40
0 -40 0 -40 -40z m70 0 c0 -5 -13 -10 -30 -10 -16 0 -30 5 -30 10 0 6 14 10
30 10 17 0 30 -4 30 -10z"/>
<path d="M334 2066 c-4 -10 -2 -22 4 -28 8 -8 13 -7 18 6 4 10 2 22 -4 28 -8
8 -13 7 -18 -6z"/>
<path d="M1970 2035 c0 -123 0 -125 23 -125 20 1 20 2 5 11 -15 8 -18 25 -18
110 0 79 3 101 15 105 22 9 18 24 -5 24 -19 0 -20 -7 -20 -125z"/>
<path d="M1941 1855 c0 -60 4 -105 9 -105 6 0 10 45 10 105 0 60 -4 105 -10
105 -5 0 -9 -45 -9 -105z"/>
<path d="M22 1917 c-16 -17 -22 -36 -22 -69 0 -40 5 -50 32 -73 26 -22 39 -26
67 -21 21 3 45 16 58 31 23 26 39 32 45 15 2 -6 107 -11 275 -14 300 -5 306
-4 306 54 0 53 -26 67 -119 63 -93 -4 -85 -4 -240 1 -67 2 -131 9 -142 15 -22
12 -67 6 -90 -12 -9 -7 -19 -4 -35 12 -33 30 -106 29 -135 -2z m123 -67 l0
-55 -55 0 -55 0 -3 44 c-5 67 0 72 60 69 l53 -3 0 -55z m125 46 c0 -7 9 -16
20 -19 15 -4 20 -14 20 -36 0 -17 -4 -31 -10 -31 -5 0 -10 14 -10 30 0 17 -4
30 -10 30 -5 0 -10 -13 -10 -30 0 -16 -4 -30 -10 -30 -5 0 -10 23 -10 50 0 28
5 50 10 50 6 0 10 -6 10 -14z m-39 -3 c5 -53 2 -83 -7 -83 -12 0 -23 58 -16
79 4 12 22 15 23 4z m139 -17 c0 -2 3 -11 6 -20 5 -12 0 -16 -21 -16 -16 0
-24 -4 -20 -11 4 -6 13 -8 21 -5 8 3 14 1 14 -5 0 -6 -10 -9 -22 -7 -39 5 -37
68 2 68 11 0 20 -2 20 -4z m102 -32 c2 -19 0 -34 -4 -34 -4 0 -8 14 -8 30 0
17 -4 30 -10 30 -5 0 -10 -13 -10 -30 0 -16 -4 -30 -10 -30 -5 0 -10 14 -10
32 0 36 -16 28 -23 -12 -3 -19 -5 -15 -6 12 -1 36 -1 37 38 36 37 0 39 -2 43
-34z m68 16 c9 -18 8 -20 -15 -20 -14 0 -25 -5 -25 -11 0 -6 9 -8 20 -4 11 4
20 2 20 -4 0 -21 -48 -12 -55 9 -13 42 35 67 55 30z m100 4 c0 -13 -3 -14 -14
-5 -17 15 -31 -2 -22 -26 5 -13 9 -13 23 -2 14 12 16 12 11 -1 -2 -8 -14 -16
-25 -18 -23 -3 -37 21 -28 49 8 24 55 26 55 3z m56 4 c5 -8 2 -9 -9 -5 -22 8
-22 -2 0 -18 9 -7 13 -17 9 -23 -9 -15 -46 -16 -46 -1 0 6 7 9 15 5 8 -3 15
-1 15 3 0 5 -7 11 -15 15 -8 3 -15 12 -15 21 0 18 35 20 46 3z m60 0 c5 -8 2
-9 -9 -5 -10 3 -17 2 -17 -3 0 -6 7 -10 15 -10 8 0 15 -9 15 -20 0 -15 -7 -20
-25 -20 -14 0 -25 5 -25 11 0 6 7 9 15 5 8 -3 15 -1 15 3 0 5 -7 11 -15 15 -8
3 -15 12 -15 21 0 18 35 20 46 3z"/>
<path d="M50 1850 c0 -40 0 -40 40 -40 40 0 40 0 40 40 0 40 0 40 -40 40 -40
0 -40 0 -40 -40z m70 22 c0 -13 -49 -56 -56 -50 -3 4 5 18 17 32 23 26 39 33
39 18z"/>
<path d="M1970 1540 c0 -353 0 -360 20 -360 24 0 25 6 5 26 -13 13 -15 65 -15
344 0 303 1 330 18 339 15 9 15 10 -5 11 l-23 0 0 -360z"/>
<path d="M1954 1645 c0 -55 1 -76 3 -47 2 29 2 74 0 100 -2 26 -3 2 -3 -53z"/>
<path d="M31 1704 c-81 -68 6 -185 103 -139 28 13 38 14 54 4 16 -10 26 -9 54
4 28 13 46 14 98 7 35 -5 67 -7 71 -4 4 2 94 5 199 5 158 0 195 -2 215 -15 52
-34 95 -7 95 61 0 58 -13 65 -122 62 -55 -1 -103 3 -116 10 -27 14 -97 14
-125 -1 -27 -14 -84 -12 -129 5 -21 8 -69 11 -132 9 -87 -3 -99 -6 -103 -23
-5 -18 -8 -17 -40 11 -42 38 -81 39 -122 4z m90 -4 c4 0 15 -13 24 -30 14 -27
14 -33 0 -59 -27 -53 -89 -49 -114 6 -20 43 24 99 67 87 8 -2 18 -4 23 -4z
m133 -27 c6 -14 8 -14 19 -1 7 10 26 15 46 14 33 -1 34 -3 35 -41 1 -31 -3
-40 -18 -43 -20 -4 -44 14 -32 25 4 4 11 1 16 -7 5 -8 12 -11 17 -7 4 4 2 17
-5 27 -7 12 -8 20 -2 20 5 0 10 4 10 9 0 15 -51 6 -61 -10 -5 -8 -9 -24 -9
-36 0 -13 -4 -23 -10 -23 -5 0 -10 13 -10 29 0 17 -4 33 -10 36 -12 8 -13 25
-1 25 5 0 12 -7 15 -17z m159 10 c-30 -6 -39 -33 -10 -34 l22 0 -23 -10 c-28
-11 -20 -29 14 -29 28 0 42 24 26 43 -9 10 -2 13 29 14 37 2 39 1 39 -28 0
-39 23 -34 31 7 6 27 7 27 8 -8 1 -34 -2 -38 -24 -38 -21 0 -25 5 -25 30 0 17
-5 30 -10 30 -17 0 -23 -29 -10 -45 9 -10 9 -15 1 -15 -6 0 -11 5 -11 12 0 9
-3 9 -12 0 -7 -7 -29 -12 -50 -12 l-38 0 0 45 c0 44 0 45 33 44 21 -1 25 -3
10 -6z m212 -38 c0 -43 -22 -58 -50 -35 -32 27 -10 84 30 78 16 -2 20 -11 20
-43z m55 0 c0 -25 -4 -45 -10 -45 -5 0 -10 16 -10 36 0 21 -4 33 -10 29 -11
-7 -14 8 -3 18 19 20 33 5 33 -38z m-460 -25 c0 -39 -3 -50 -16 -50 -13 0 -14
3 -4 15 7 8 10 31 8 50 -2 19 0 35 4 35 4 0 8 -22 8 -50z m575 26 c6 -20 6
-20 16 3 13 32 20 22 11 -14 -11 -38 -29 -43 -36 -8 -5 22 -13 28 -33 30 l-27
1 23 -18 c13 -9 21 -22 17 -28 -8 -14 -76 -13 -76 1 0 5 13 7 30 4 31 -7 42 6
15 17 -8 3 -15 12 -15 20 0 25 67 18 75 -8z m105 -7 c0 -17 -5 -39 -10 -50
-11 -20 -50 -27 -50 -8 0 6 7 9 15 6 8 -4 17 -2 20 3 4 6 -3 10 -13 10 -23 0
-35 24 -27 51 4 13 16 19 36 19 26 0 29 -3 29 -31z"/>
<path d="M60 1662 c0 -6 6 -13 13 -16 10 -5 10 -7 0 -12 -7 -3 -13 -10 -13
-16 0 -6 6 -6 15 2 12 10 18 10 30 0 9 -8 15 -8 15 -2 0 6 -6 13 -12 16 -10 5
-10 7 0 12 6 3 12 10 12 16 0 6 -6 6 -15 -2 -12 -10 -18 -10 -30 0 -9 8 -15 8
-15 2z"/>
<path d="M584 1666 c-8 -21 -1 -49 13 -53 6 -2 14 5 17 15 12 36 -17 72 -30
38z"/>
<path d="M854 1646 c-4 -10 -2 -22 4 -28 8 -8 13 -7 18 6 4 10 2 22 -4 28 -8
8 -13 7 -18 -6z"/>
<path d="M1938 1443 l-3 -98 -692 -3 c-381 -1 -693 1 -693 4 0 3 11 15 25 26
28 21 33 63 13 90 -7 9 -29 23 -49 31 -33 13 -38 13 -52 0 -14 -14 -20 -14
-61 -1 -40 13 -51 13 -89 1 -38 -12 -49 -12 -87 1 -38 13 -47 13 -60 1 -13
-11 -18 -11 -34 1 -11 8 -41 14 -66 14 -64 0 -83 -22 -78 -87 3 -26 8 -55 12
-65 5 -11 2 -18 -11 -21 -10 -3 424 -5 965 -6 l982 -1 0 105 c0 133 -18 140
-22 8z m-1793 -13 l0 -55 -55 0 -55 0 -3 44 c-5 67 0 72 60 69 l53 -3 0 -55z
m75 10 c0 -27 -3 -50 -7 -50 -5 0 -8 23 -8 50 0 28 3 50 8 50 4 0 7 -22 7 -50z
m65 -15 c0 -21 -5 -31 -19 -33 -26 -5 -40 12 -32 43 5 20 12 26 29 23 17 -2
22 -10 22 -33z m73 -12 c-2 -37 -7 -49 -22 -51 -10 -2 -23 1 -29 7 -9 9 -5 11
12 9 13 -2 26 2 28 8 2 6 -7 10 -19 10 -14 -1 -24 6 -26 17 -6 30 6 47 33 47
25 0 26 -2 23 -47z m32 12 c0 -19 -4 -35 -10 -35 -5 0 -10 16 -10 35 0 19 5
35 10 35 6 0 10 -16 10 -35z m68 -2 c2 -19 -1 -33 -7 -33 -6 0 -11 14 -11 30
0 17 -4 30 -10 30 -5 0 -10 -13 -10 -30 0 -16 -4 -30 -10 -30 -5 0 -10 16 -10
36 0 33 2 35 28 32 22 -2 28 -8 30 -35z m52 -13 c0 -27 -3 -50 -7 -50 -5 0 -6
22 -5 50 5 65 12 65 12 0z m60 40 c0 -5 -7 -7 -15 -4 -8 4 -15 2 -15 -4 0 -5
9 -12 21 -15 12 -3 19 -12 17 -19 -6 -18 -38 -23 -52 -8 -8 9 -6 11 12 5 13
-4 22 -2 22 4 0 6 -6 11 -14 11 -15 0 -28 24 -19 34 10 10 43 7 43 -4z m-371
-72 c13 -14 16 -15 57 -17 14 0 22 -5 19 -11 -6 -10 -125 -15 -125 -5 0 9 24
45 30 45 3 0 12 -6 19 -12z m245 -14 c28 -11 17 -24 -19 -24 -34 0 -47 13 -22
23 18 8 23 8 41 1z"/>
<path d="M50 1430 c0 -40 0 -40 40 -40 40 0 40 0 40 40 0 40 0 40 -40 40 -40
0 -40 0 -40 -40z"/>
<path d="M250 1425 c0 -17 5 -25 13 -22 6 2 12 12 12 22 0 10 -6 20 -12 23 -8
2 -13 -6 -13 -23z"/>
<path d="M317 1437 c-3 -8 -1 -20 4 -28 11 -19 34 3 26 25 -8 20 -23 21 -30 3z"/>
<path d="M27 1272 c-35 -36 -34 -71 1 -105 35 -34 92 -37 122 -7 26 26 37 25
45 -1 6 -18 12 -20 48 -14 38 6 92 7 205 5 58 -2 120 11 133 26 15 18 33 18
49 -1 11 -13 43 -15 206 -13 143 2 197 -1 206 -10 15 -15 60 -16 76 0 16 16
15 93 -1 106 -7 6 -67 11 -149 10 -85 0 -144 5 -158 12 -16 8 -30 9 -52 1 -17
-6 -49 -11 -70 -11 -22 0 -48 -5 -59 -11 -15 -8 -33 -5 -76 11 -45 17 -62 19
-86 10 -17 -5 -79 -10 -139 -10 -67 0 -116 -5 -128 -12 -16 -10 -23 -8 -44 15
-35 38 -92 38 -129 -1z m94 8 c4 0 15 -13 24 -30 14 -27 14 -33 0 -59 -27 -52
-89 -49 -114 5 -20 44 24 103 67 88 8 -2 18 -4 23 -4z m381 -47 c-7 -65 -12
-67 -12 -5 0 29 4 52 9 52 5 0 6 -21 3 -47z m288 -3 c0 -27 -4 -50 -10 -50 -5
0 -10 23 -10 50 0 28 5 50 10 50 6 0 10 -22 10 -50z m-528 -30 c-4 -45 -6 -50
-28 -50 -13 0 -24 5 -24 11 0 6 7 9 15 6 8 -4 17 -2 20 3 4 6 -3 10 -13 10
-23 0 -35 24 -27 51 4 12 16 19 33 19 26 0 27 -2 24 -50z m72 38 c5 -10 7 -10
12 0 3 6 16 12 29 12 13 0 26 -6 29 -12 5 -10 7 -10 12 0 3 6 18 12 32 12 26
0 27 -2 24 -50 -4 -45 -6 -50 -28 -50 -13 0 -24 5 -24 11 0 6 7 9 15 6 8 -4
17 -2 20 3 4 6 -3 10 -14 10 -10 0 -22 6 -25 13 -5 10 -7 10 -12 0 -3 -7 -16
-13 -29 -13 -13 0 -26 6 -29 13 -5 10 -7 10 -12 0 -16 -34 -71 0 -59 37 7 22
50 28 59 8z m233 0 c4 -7 22 -13 38 -13 17 0 34 6 38 13 12 18 47 15 47 -4 0
-13 -3 -14 -14 -5 -17 15 -31 -2 -22 -26 5 -12 9 -13 21 -3 12 10 15 9 15 -4
0 -23 -35 -20 -51 5 -13 18 -20 20 -62 14 -26 -4 -44 -11 -42 -16 3 -4 12 -6
20 -2 8 3 15 0 15 -6 0 -20 -48 -12 -55 9 -12 36 33 68 52 38z m188 -23 c0
-25 -4 -30 -25 -30 -16 0 -26 6 -28 18 -6 30 6 49 30 45 18 -2 23 -9 23 -33z
m100 0 c0 -25 -4 -30 -25 -30 -16 0 -26 6 -28 18 -6 30 6 49 30 45 18 -2 23
-9 23 -33z m40 21 c-12 -8 -16 -20 -12 -35 3 -11 1 -21 -4 -21 -5 0 -9 16 -9
35 0 29 4 35 22 35 21 0 21 -1 3 -14z m85 3 c0 -6 -7 -9 -15 -5 -8 3 -15 1
-15 -4 0 -6 7 -10 15 -10 8 0 15 -9 15 -20 0 -22 -34 -28 -46 -9 -4 8 0 9 15
4 12 -4 21 -2 21 4 0 6 -6 11 -14 11 -18 0 -29 16 -21 30 8 14 45 13 45 -1z
m30 -11 c9 -23 9 -23 15 -2 5 16 15 21 46 22 l40 2 -3 -47 c-2 -37 -7 -49 -22
-51 -10 -2 -23 2 -30 8 -8 9 -6 11 12 5 12 -3 22 -2 22 3 0 5 -9 12 -20 15
-14 3 -20 14 -21 34 l-1 28 -10 -32 c-13 -40 -25 -42 -38 -7 -17 44 -8 65 10
22z"/>
<path d="M60 1242 c0 -6 6 -13 13 -16 10 -5 10 -7 0 -12 -7 -3 -13 -10 -13
-16 0 -6 6 -6 15 2 12 10 18 10 30 0 9 -8 15 -8 15 -2 0 6 -6 13 -12 16 -10 5
-10 7 0 12 6 3 12 10 12 16 0 6 -6 6 -15 -2 -12 -10 -18 -10 -30 0 -9 8 -15 8
-15 2z"/>
<path d="M224 1226 c-4 -10 -2 -22 4 -28 8 -8 13 -7 18 6 4 10 2 22 -4 28 -8
8 -13 7 -18 -6z"/>
<path d="M294 1226 c-4 -10 -2 -22 4 -28 8 -8 13 -7 18 6 4 10 2 22 -4 28 -8
8 -13 7 -18 -6z"/>
<path d="M364 1226 c-4 -10 -2 -22 4 -28 8 -8 13 -7 18 6 4 10 2 22 -4 28 -8
8 -13 7 -18 -6z"/>
<path d="M434 1226 c-4 -10 -2 -22 4 -28 8 -8 13 -7 18 6 4 10 2 22 -4 28 -8
8 -13 7 -18 -6z"/>
<path d="M720 1215 c0 -17 5 -25 13 -22 6 2 12 12 12 22 0 10 -6 20 -12 23 -8
2 -13 -6 -13 -23z"/>
<path d="M814 1225 c-3 -8 -3 -19 1 -25 11 -18 25 -11 25 15 0 27 -17 34 -26
10z"/>
<path d="M1064 1225 c-3 -8 -3 -19 1 -25 11 -18 25 -11 25 15 0 27 -17 34 -26
10z"/>
<path d="M1970 1045 c0 -118 1 -125 20 -125 11 0 20 5 20 10 0 6 -7 10 -15 10
-22 0 -22 176 1 208 14 21 14 22 -5 22 -20 0 -21 -6 -21 -125z"/>
<path d="M23 1113 c33 -5 34 -13 2 -43 -29 -27 -34 -83 -10 -114 19 -26 19
-34 -3 -39 -9 -3 425 -5 966 -6 l982 -1 0 105 0 105 -982 -1 c-541 -1 -971 -4
-955 -6z m182 -14 c4 -5 -1 -19 -11 -30 -18 -20 -18 -19 -40 3 -12 13 -19 26
-17 31 6 11 61 8 68 -4z m1719 5 c13 -5 16 -23 16 -89 l0 -82 -433 -5 c-239
-2 -450 -2 -471 0 l-37 4 21 23 c15 16 20 33 18 56 -2 28 -10 38 -45 56 -40
21 -42 21 -58 3 -12 -13 -23 -16 -43 -11 -15 4 -56 6 -92 3 -36 -2 -130 -3
-210 -2 -112 1 -150 5 -169 17 -19 12 -27 13 -47 2 -31 -16 -79 -16 -99 1 -13
10 -13 15 -3 21 15 10 1628 12 1652 3z m-1803 -34 c4 0 15 -13 24 -30 14 -27
14 -33 0 -59 -27 -53 -89 -49 -114 6 -20 43 24 99 67 87 8 -2 18 -4 23 -4z
m144 -10 c-3 -5 -12 -7 -20 -3 -8 3 -15 0 -15 -6 0 -6 7 -11 15 -11 8 0 15 -9
15 -19 0 -11 3 -26 6 -35 3 -9 1 -16 -5 -16 -6 0 -11 14 -11 30 0 17 -4 30
-10 30 -5 0 -10 -13 -10 -30 0 -42 -17 -38 -22 5 -5 45 7 65 38 65 14 0 23 -4
19 -10z m135 -5 c0 -8 9 -15 19 -15 26 0 34 -15 27 -46 -5 -17 -13 -24 -30
-24 -22 0 -24 5 -28 50 -1 28 0 50 5 50 4 0 7 -7 7 -15z m-30 -19 c0 -2 3 -11
6 -20 5 -12 0 -16 -21 -16 -16 0 -24 -4 -20 -11 4 -6 13 -8 21 -5 8 3 14 1 14
-5 0 -6 -10 -9 -22 -7 -39 5 -37 68 2 68 11 0 20 -2 20 -4z m138 -34 c3 -29 1
-32 -22 -32 -19 0 -26 5 -26 20 0 14 7 20 21 20 11 0 18 4 14 10 -3 5 -13 6
-22 3 -11 -4 -14 -3 -9 6 15 23 41 7 44 -27z m62 27 c0 -6 -7 -9 -15 -5 -8 3
-15 1 -15 -4 0 -6 7 -10 15 -10 8 0 15 -9 15 -20 0 -22 -34 -28 -46 -9 -4 8 0
9 15 4 12 -4 21 -2 21 4 0 6 -6 11 -14 11 -18 0 -29 16 -21 30 8 14 45 13 45
-1z m68 -11 c2 -13 -3 -18 -17 -18 -12 0 -21 -5 -21 -11 0 -6 9 -8 21 -4 15 5
19 4 15 -4 -4 -6 -16 -11 -26 -11 -21 0 -37 40 -25 60 10 17 49 8 53 -12z
m120 -16 c3 -31 2 -33 -25 -30 -35 4 -37 30 -3 38 17 4 21 8 12 14 -6 4 -16 4
-22 1 -5 -3 -10 -1 -10 5 0 6 10 10 23 8 17 -2 23 -11 25 -36z m73 26 c0 -10
2 -10 6 0 7 18 60 15 67 -4 10 -26 -3 -54 -25 -54 -10 0 -19 -7 -19 -15 0 -8
-4 -15 -10 -15 -5 0 -10 11 -10 24 0 22 -2 23 -25 13 -14 -7 -25 -18 -25 -24
0 -7 -4 -13 -10 -13 -5 0 -10 23 -10 50 0 49 1 50 30 50 17 0 30 -5 31 -12z
m129 -38 c0 -33 -4 -50 -12 -50 -9 0 -12 15 -10 50 5 65 22 65 22 0z m56 38
c5 -8 2 -9 -9 -5 -10 3 -17 2 -17 -3 0 -6 7 -10 15 -10 8 0 15 -9 15 -20 0
-22 -34 -28 -46 -8 -5 8 -2 9 9 5 10 -3 17 -2 17 2 0 5 -7 11 -15 15 -8 3 -15
12 -15 21 0 18 35 20 46 3z m-811 -68 c4 -6 30 -11 58 -11 29 0 122 -2 209 -4
128 -4 158 -2 168 10 16 19 44 19 60 0 7 -8 19 -15 28 -15 8 0 12 -3 9 -7 -4
-3 -129 -5 -279 -5 -150 1 -281 2 -291 2 -15 0 -16 3 -7 20 12 22 35 26 45 10z"/>
<path d="M60 1032 c0 -6 6 -13 13 -16 10 -5 10 -7 0 -12 -7 -3 -13 -10 -13
-16 0 -6 6 -6 15 2 12 10 18 10 30 0 9 -8 15 -8 15 -2 0 6 -6 13 -12 16 -10 5
-10 7 0 12 6 3 12 10 12 16 0 6 -6 6 -15 -2 -12 -10 -18 -10 -30 0 -9 8 -15 8
-15 2z"/>
<path d="M404 1015 c-3 -8 -3 -19 1 -25 11 -18 25 -11 25 15 0 27 -17 34 -26
10z"/>
<path d="M794 1016 c-4 -10 -2 -22 4 -28 8 -8 13 -7 18 6 4 10 2 22 -4 28 -8
8 -13 7 -18 -6z"/>
<path d="M864 1016 c-4 -10 -2 -22 4 -28 8 -8 13 -7 18 6 4 10 2 22 -4 28 -8
8 -13 7 -18 -6z"/>
<path d="M1970 775 c0 -122 1 -125 22 -125 19 0 20 1 6 13 -13 10 -15 28 -11
115 3 56 10 102 14 102 5 0 9 5 9 10 0 6 -9 10 -20 10 -19 0 -20 -7 -20 -125z"/>
<path d="M26 849 c-34 -40 -33 -64 3 -100 39 -39 79 -39 125 1 31 28 36 29 44
14 9 -15 34 -18 215 -21 180 -4 209 -2 232 13 23 15 27 15 50 0 19 -13 48 -15
139 -14 81 1 119 -2 130 -11 13 -11 23 -10 60 4 51 20 63 42 44 81 -14 29 -82
65 -71 38 3 -8 0 -14 -6 -14 -6 0 -11 6 -11 13 0 8 -3 7 -10 -3 -8 -13 -13
-13 -40 3 -31 18 -72 18 -106 -1 -9 -5 -35 -7 -56 -4 -22 3 -49 -1 -63 -8 -17
-9 -32 -10 -56 -2 -19 6 -74 11 -123 12 -48 0 -97 5 -107 10 -12 7 -33 6 -63
-2 -34 -9 -51 -9 -68 -1 -50 25 -67 25 -91 0 l-23 -25 -23 24 c-35 36 -91 33
-125 -7z m95 11 c4 0 15 -13 24 -30 14 -27 14 -33 0 -60 -39 -75 -145 -24
-115 55 10 27 45 47 68 39 8 -2 18 -4 23 -4z m144 -10 c-3 -5 -12 -7 -20 -3
-8 3 -15 0 -15 -6 0 -6 7 -11 15 -11 8 0 15 -9 15 -19 0 -11 3 -26 6 -35 3 -9
1 -16 -5 -16 -6 0 -11 14 -11 30 0 17 -4 30 -10 30 -5 0 -10 -13 -10 -30 0
-42 -17 -38 -22 5 -5 45 7 65 38 65 14 0 23 -4 19 -10z m135 -4 c0 -8 10 -16
23 -18 17 -2 22 -10 22 -33 0 -25 -4 -31 -26 -33 -26 -3 -27 -1 -30 47 -2 28
-1 51 4 51 4 0 7 -6 7 -14z m500 -1 c0 -8 9 -15 20 -15 17 0 20 -6 19 -37 -1
-36 -2 -37 -8 -9 -8 39 -24 39 -32 1 -5 -25 -6 -21 -10 23 -2 28 -1 52 4 52 4
0 7 -7 7 -15z m-31 -23 c-14 -5 -11 -50 4 -55 7 -4 6 -6 -4 -6 -12 -1 -18 9
-21 33 -5 46 0 59 17 43 7 -7 9 -13 4 -15z m-499 4 c0 -2 3 -11 6 -20 5 -12 0
-16 -21 -16 -16 0 -24 -4 -20 -11 4 -6 13 -8 21 -5 8 3 14 1 14 -5 0 -6 -10
-9 -22 -7 -39 5 -37 68 2 68 11 0 20 -2 20 -4z m138 -33 c3 -30 1 -33 -22 -33
-19 0 -26 5 -26 20 0 14 7 20 21 20 11 0 18 4 14 10 -3 5 -12 7 -20 3 -8 -3
-15 0 -15 7 0 6 10 10 23 8 17 -2 23 -11 25 -35z m62 26 c0 -6 -7 -9 -15 -5
-8 3 -15 1 -15 -4 0 -6 7 -10 15 -10 8 0 15 -9 15 -20 0 -22 -34 -28 -46 -9
-4 8 0 9 15 4 12 -4 21 -2 21 4 0 6 -6 11 -14 11 -18 0 -29 16 -21 30 8 14 45
13 45 -1z m68 -11 c2 -13 -3 -18 -17 -18 -12 0 -21 -5 -21 -11 0 -6 9 -8 23
-4 17 6 19 4 11 -5 -27 -28 -65 7 -50 46 8 21 50 14 54 -8z m120 -16 c3 -31 2
-33 -25 -30 -35 4 -37 30 -3 38 17 4 21 8 12 14 -6 4 -16 4 -22 1 -5 -3 -10
-1 -10 5 0 6 10 10 23 8 17 -2 23 -11 25 -36z m32 8 c0 -16 5 -30 10 -30 6 0
10 14 10 30 0 17 5 30 10 30 6 0 10 -16 10 -35 0 -30 -3 -35 -24 -35 -13 0
-27 7 -30 16 -9 24 -7 54 4 54 6 0 10 -13 10 -30z m210 -20 c0 -33 -4 -50 -12
-50 -9 0 -12 15 -10 50 5 65 22 65 22 0z m56 39 c4 -8 -1 -9 -17 -4 l-24 6 24
-19 c13 -11 21 -24 17 -31 -9 -13 -46 -15 -46 -1 0 5 7 7 15 4 8 -4 15 -2 15
4 0 5 -7 12 -15 16 -8 3 -15 12 -15 21 0 17 35 21 46 4z"/>
<path d="M60 822 c0 -6 6 -13 13 -16 10 -5 10 -7 0 -12 -7 -3 -13 -10 -13 -16
0 -6 6 -6 15 2 12 10 18 10 33 -1 15 -13 16 -12 3 4 -11 14 -11 20 0 35 13 15
12 16 -3 3 -15 -11 -21 -11 -33 -1 -9 8 -15 8 -15 2z"/>
<path d="M404 805 c-3 -8 -3 -19 1 -25 11 -18 25 -11 25 15 0 27 -17 34 -26
10z"/>
<path d="M23 687 l29 -12 -26 -24 c-39 -36 -36 -88 7 -129 40 -38 61 -40 109
-7 l36 24 15 -22 c15 -22 15 -22 47 -3 26 15 51 18 133 17 55 -1 103 -4 105
-6 3 -3 22 5 43 17 36 20 40 20 57 5 14 -13 40 -16 127 -16 61 0 126 -1 145
-2 19 -1 45 -1 58 -1 12 1 30 2 40 3 9 0 35 0 57 0 22 0 54 0 70 0 17 0 97 0
179 0 125 -1 153 2 168 16 15 14 22 14 46 3 30 -14 76 -21 142 -20 51 1 48 1
157 0 46 -1 92 2 104 5 30 10 19 37 -18 47 -20 5 -34 17 -39 31 -12 42 -36 59
-71 52 -20 -4 -33 -2 -33 5 0 6 41 10 114 10 132 0 126 6 123 -116 -2 -41 1
-74 5 -74 5 0 8 47 8 105 l0 105 -982 0 c-778 -1 -977 -3 -955 -13z m247 -22
c-7 -8 -21 -15 -31 -15 -11 0 -28 -5 -39 -12 -15 -10 -23 -9 -39 6 -12 11 -21
23 -21 28 0 4 32 8 71 8 62 0 70 -2 59 -15z m440 5 c0 -9 -59 -15 -103 -10
-10 1 -27 -6 -37 -15 -17 -16 -24 -16 -82 -1 -48 12 -73 13 -107 5 -35 -8 -48
-7 -67 6 -13 8 -24 18 -24 20 0 3 94 5 210 5 133 0 210 -4 210 -10z m191 1
c-16 -10 -167 -8 -177 2 -4 4 37 7 92 7 61 0 94 -4 85 -9z m475 2 c-6 -6 -223
-15 -306 -13 -14 0 -53 0 -87 0 -35 0 -63 5 -63 10 0 6 85 10 232 10 127 0
228 -3 224 -7z m97 -17 c-29 -25 -46 -23 -73 8 -11 14 -6 16 44 16 l57 0 -28
-24z m143 17 c-4 -5 -25 -8 -47 -8 -21 0 -39 3 -39 8 0 4 21 7 47 7 25 0 43
-3 39 -7z m-1495 -23 c4 0 15 -13 24 -30 14 -27 14 -33 0 -59 -27 -53 -89 -49
-114 6 -20 43 24 99 67 87 8 -2 18 -4 23 -4z m169 -15 c0 -8 9 -15 20 -15 17
0 20 -6 19 -37 -1 -36 -2 -37 -8 -9 -8 39 -24 39 -32 1 -5 -25 -6 -21 -10 23
-2 28 -1 52 4 52 4 0 7 -7 7 -15z m431 -9 c-9 -11 -7 -15 10 -19 31 -8 22 -52
-11 -52 -20 0 -26 6 -28 28 -2 17 4 37 14 48 19 21 33 17 15 -5z m450 0 c-9
-11 -7 -15 10 -19 31 -8 22 -52 -11 -52 -20 0 -26 6 -28 28 -2 17 4 37 14 48
19 21 33 17 15 -5z m-736 4 c-3 -5 0 -10 7 -11 10 0 10 -2 1 -6 -16 -6 -17
-35 -1 -51 9 -9 8 -12 -4 -12 -11 0 -17 11 -20 34 -4 39 0 56 13 56 6 0 7 -4
4 -10z m175 -35 c0 -25 -4 -45 -10 -45 -5 0 -10 14 -10 30 0 17 -5 30 -11 30
-8 0 -8 5 1 15 21 26 30 17 30 -30z m62 11 c4 -39 0 -56 -13 -56 -6 0 -7 5 -4
10 3 6 -3 10 -14 10 -25 0 -26 4 -4 41 22 38 30 37 35 -5z m118 22 c-24 -11
-24 -12 -3 -15 24 -5 35 -25 26 -49 -7 -19 -45 -15 -51 6 -4 13 -3 13 10 2 11
-9 18 -10 23 -2 9 15 -3 30 -20 23 -11 -4 -15 2 -15 21 0 22 4 26 28 25 l27 0
-25 -11z m65 -33 c0 -25 -3 -45 -7 -45 -5 0 -8 16 -8 36 0 21 -4 33 -10 29
-11 -7 -14 8 -3 18 17 18 28 3 28 -38z m75 31 c26 -32 -7 -87 -44 -73 -16 6
-23 66 -9 80 11 12 40 8 53 -7z m50 -31 c0 -54 -16 -60 -23 -7 -5 40 -1 52 14
52 5 0 9 -20 9 -45z m76 21 c9 -38 -4 -66 -31 -66 -27 0 -40 28 -31 66 9 34
53 34 62 0z m66 -11 c2 -19 0 -41 -4 -48 -6 -9 -8 -9 -8 1 0 6 -9 12 -20 12
-19 0 -19 1 -3 35 21 44 30 44 35 0z m203 -10 c0 -31 -4 -40 -19 -43 -10 -2
-23 2 -27 10 -8 11 -10 11 -18 0 -11 -17 -43 -12 -49 8 -4 12 -2 13 9 3 19
-19 29 -16 29 8 0 16 -4 19 -20 14 -16 -5 -20 -2 -20 19 0 25 2 26 58 24 l57
-3 0 -40z m81 21 c9 -38 -4 -66 -31 -66 -27 0 -40 28 -31 66 9 34 53 34 62 0z
m124 19 c0 -3 -4 -13 -9 -23 -5 -9 -14 -28 -19 -42 l-11 -25 0 25 c0 14 4 32
9 40 7 11 4 17 -13 22 -18 5 -16 6 11 7 17 1 32 -1 32 -4z m55 -40 c0 -33 -4
-41 -21 -43 -12 -2 -24 4 -27 12 -7 18 4 21 20 5 8 -8 13 -7 18 2 5 7 1 17
-10 26 -11 7 -13 13 -7 13 7 0 12 4 12 10 0 5 -7 7 -15 4 -8 -4 -15 -1 -15 6
0 6 10 10 23 8 19 -3 22 -9 22 -43z m69 0 c1 -31 -3 -40 -18 -43 -20 -4 -44
14 -32 25 4 4 11 1 16 -7 5 -8 12 -11 17 -7 4 4 2 17 -5 27 -7 12 -8 20 -2 20
5 0 10 5 10 11 0 6 -9 8 -21 4 -15 -5 -19 -4 -14 5 4 6 16 10 28 8 17 -2 21
-10 21 -43z m65 31 c20 -24 -15 -104 -36 -82 -4 3 2 12 12 20 17 12 17 13 -4
19 -31 8 -28 57 4 57 7 0 18 -6 24 -14z m66 -31 c0 -33 -4 -41 -21 -43 -23 -3
-39 22 -27 41 4 7 6 20 4 30 -2 14 3 18 21 15 20 -3 23 -9 23 -43z m-1520 6
c8 -26 -4 -51 -26 -51 -10 0 -19 -7 -19 -15 0 -8 -3 -15 -7 -15 -5 0 -6 22 -5
50 4 45 6 50 27 50 14 0 26 -7 30 -19z m140 0 c9 -28 -5 -51 -30 -51 -25 0
-39 23 -30 51 8 25 52 25 60 0z m110 0 c9 -28 -5 -51 -30 -51 -25 0 -39 23
-30 51 8 25 52 25 60 0z"/>
<path d="M60 612 c0 -6 6 -13 13 -16 10 -5 10 -7 0 -12 -7 -3 -13 -10 -13 -16
0 -6 6 -6 15 2 12 10 18 10 30 0 9 -8 15 -8 15 -2 0 6 -6 13 -12 16 -10 5 -10
7 0 12 6 3 12 10 12 16 0 6 -6 6 -15 -2 -12 -10 -18 -10 -30 0 -9 8 -15 8 -15
2z"/>
<path d="M886 612 c-8 -24 3 -54 18 -49 15 5 14 59 -1 64 -6 2 -14 -5 -17 -15z"/>
<path d="M1012 613 c-9 -15 -8 -25 2 -38 13 -18 14 -18 24 2 9 15 8 25 -2 38
-13 18 -14 18 -24 -2z"/>
<path d="M1230 619 c0 -5 6 -9 13 -9 6 0 23 -12 36 -26 18 -18 27 -22 35 -14
8 8 6 15 -8 26 -11 8 -14 14 -8 14 7 0 12 4 12 8 0 4 -18 8 -40 9 -22 1 -40
-2 -40 -8z"/>
<path d="M1362 613 c-9 -15 -8 -25 2 -38 13 -18 14 -18 24 2 9 15 8 25 -2 38
-13 18 -14 18 -24 -2z"/>
<path d="M224 595 c-3 -8 -3 -19 1 -25 11 -18 25 -11 25 15 0 27 -17 34 -26
10z"/>
<path d="M364 596 c-4 -10 -2 -22 4 -28 8 -8 13 -7 18 6 4 10 2 22 -4 28 -8 8
-13 7 -18 -6z"/>
<path d="M474 596 c-4 -10 -2 -22 4 -28 8 -8 13 -7 18 6 4 10 2 22 -4 28 -8 8
-13 7 -18 -6z"/>
<path d="M1972 318 l3 -323 2 310 c3 277 5 311 20 323 15 11 15 12 -5 12 l-22
0 2 -322z"/>
<path d="M1954 240 c0 -135 2 -190 3 -122 2 67 2 177 0 245 -1 67 -3 12 -3
-123z"/>
</g>
</svg>
