<svg xmlns="http://www.w3.org/2000/svg" viewBox="0 0 48 48"><g><path fill="#4285F4" d="M43.6 20.5H42V20H24v8h11.3c-1.1 2.9-3.7 5-7.3 5-4.4 0-8-3.6-8-8s3.6-8 8-8c2 0 3.8.7 5.2 1.8l6.3-6.3C36.1 9.5 30.4 7 24 7 13.5 7 5 15.5 5 26s8.5 19 19 19c9.5 0 18-7.5 18-19 0-1.3-.1-2.7-.4-3.9z"/><path fill="#34A853" d="M6.7 14.6l6.6 4.8C15.5 16.1 19.4 13 24 13c2 0 3.8.7 5.2 1.8l6.3-6.3C36.1 9.5 30.4 7 24 7c-6.4 0-12.1 2.5-16.3 6.6z"/><path fill="#FBBC05" d="M24 43c6.1 0 11.2-2 14.9-5.5l-7.1-5.8c-2 1.3-4.5 2.1-7.8 2.1-3.6 0-6.8-1.2-9.2-3.2l-7.1 5.8C8.8 40.5 15.1 43 24 43z"/><path fill="#EA4335" d="M43.6 20.5H42V20H24v8h11.3c-.5 1.4-1.3 2.7-2.3 3.7l7.1 5.8c2.1-2.1 3.7-5.1 3.7-9 0-1.3-.1-2.7-.4-3.9z"/></g></svg>